<svg xmlns="http://www.w3.org/2000/svg" width="48" height="48" viewBox="0 0 48 48">
    <g fill="none" fill-rule="evenodd">
        <path d="M0 0h48v48H0z"/>
        <path fill="#000" d="M28.911 10.328L6.233 33.007c-.401.4-.822 1.421-.822 2.002v7.982c0 .004.005.009.009.009h7.983c.578 0 1.6-.421 2.001-.822L38.083 19.5l-9.172-9.172zm-.708-2.12a1.005 1.005 0 0 1 1.414-.002l10.588 10.588c.39.39.384 1.028-.002 1.415L16.819 43.593C16.04 44.37 14.509 45 13.403 45H5.42a2.01 2.01 0 0 1-2.009-2.009V35.01c0-1.11.63-2.64 1.408-3.416L28.203 8.209zm-2.499 9.085a1 1 0 0 1 1.414 1.414l-11 11a1 1 0 0 1-1.414-1.414l11-11zm4 4a1 1 0 0 1 1.414 1.414l-11 11a1 1 0 0 1-1.414-1.414l11-11zm12.207-5.621l.836-.836a1.18 1.18 0 0 0 .007-1.665L35.24 5.657a1.175 1.175 0 0 0-1.665.007l-.835.836 9.171 9.172zM32.161 4.25a3.175 3.175 0 0 1 4.493-.007l7.514 7.514a3.18 3.18 0 0 1-.007 4.493l-1.547 1.547a1 1 0 0 1-1.409-.003L30.617 7.206a1.004 1.004 0 0 1-.003-1.41l1.547-1.546z"/>
    </g>
</svg>
