<?xml version="1.0"?>
<svg xmlns="http://www.w3.org/2000/svg" height="512px" viewBox="1 1 511.99975 511" width="512px"><g><path d="m331.992188.5c-99.257813 0-180.007813 80.75-180.007813 180.007812 0 44.238282 16.050781 84.792969 42.625 116.167969l-20.34375 20.34375-10.605469-10.605469c-5.859375-5.859374-15.355468-5.859374-21.214844 0l-129.285156 129.285157c-17.546875 17.542969-17.546875 46.09375 0 63.640625 17.542969 17.546875 46.09375 17.546875 63.640625 0l129.285157-129.285156c5.855468-5.855469 5.859374-15.355469 0-21.214844l-10.605469-10.605469 20.339843-20.34375c31.378907 26.574219 71.933594 42.625 116.171876 42.625 99.257812 0 180.007812-80.753906 180.007812-180.007813 0-99.257812-80.75-180.007812-180.007812-180.007812zm-276.402344 477.625c-5.851563 5.851562-15.367188 5.851562-21.214844 0-5.851562-5.847656-5.851562-15.363281 0-21.214844l76.246094-76.246094 21.214844 21.210938zm97.460937-97.460938-21.214843-21.214843 21.214843-21.214844 21.214844 21.214844zm178.941407-50.152343c-82.714844 0-150.007813-67.292969-150.007813-150.003907 0-82.714843 67.292969-150.007812 150.007813-150.007812 82.714843 0 150.007812 67.292969 150.007812 150.007812 0 82.710938-67.292969 150.003907-150.007812 150.003907zm0 0" data-original="#000000" class="active-path" data-old_color="#e0e0e0" fill="#e0e0e0"/></g> </svg>
